<svg id="Layer_1" data-name="Layer 1" xmlns="http://www.w3.org/2000/svg" viewBox="0 0 99.02 57.05"><defs><style>.cls-1{fill:#fff;}</style></defs><path class="cls-1" d="M1.46,16.68H6.78V40.87H1.46Z"/><path class="cls-1" d="M24.58,41.28a13.09,13.09,0,0,1-5.15-1,12.77,12.77,0,0,1-4.06-2.66,11.87,11.87,0,0,1-2.66-3.94,12.32,12.32,0,0,1-1-4.86v-.06a12.32,12.32,0,0,1,1-4.86,12.42,12.42,0,0,1,6.76-6.67,13.43,13.43,0,0,1,5.16-1,13.27,13.27,0,0,1,5.15,1,12.94,12.94,0,0,1,4.06,2.66,11.87,11.87,0,0,1,2.66,3.94,12.32,12.32,0,0,1,1,4.86v.07a12.31,12.31,0,0,1-1,4.85,12.42,12.42,0,0,1-6.76,6.67A13.25,13.25,0,0,1,24.58,41.28Zm.06-4.9a7.32,7.32,0,0,0,2.94-.59,6.66,6.66,0,0,0,2.3-1.62,7.93,7.93,0,0,0,1.49-2.41,8.05,8.05,0,0,0,.53-2.92v-.06a8.2,8.2,0,0,0-.53-2.94,7.47,7.47,0,0,0-1.52-2.42,7.32,7.32,0,0,0-2.34-1.64,7.15,7.15,0,0,0-2.93-.61,7.28,7.28,0,0,0-3,.59,6.57,6.57,0,0,0-2.28,1.63,7.76,7.76,0,0,0-1.49,2.4,8.05,8.05,0,0,0-.53,2.92v.07a8.19,8.19,0,0,0,.53,2.93,7.33,7.33,0,0,0,1.53,2.42,7.2,7.2,0,0,0,2.31,1.64A7,7,0,0,0,24.64,36.38Z"/><path class="cls-1" d="M61.88,16.68H67.2V40.87H61.88Z"/><path class="cls-1" d="M85,41.28a13.13,13.13,0,0,1-5.15-1,12.77,12.77,0,0,1-4.06-2.66,11.87,11.87,0,0,1-2.66-3.94,12.5,12.5,0,0,1-.95-4.86v-.06a12.16,12.16,0,0,1,1-4.86,12.4,12.4,0,0,1,2.67-4,12.52,12.52,0,0,1,4.08-2.7,14.07,14.07,0,0,1,10.32,0,13.06,13.06,0,0,1,4.06,2.66,12,12,0,0,1,2.66,3.94,12.5,12.5,0,0,1,1,4.86v.07a12.32,12.32,0,0,1-1,4.85,12.42,12.42,0,0,1-6.76,6.67A13.21,13.21,0,0,1,85,41.28Zm.07-4.9A7.23,7.23,0,0,0,88,35.79a6.66,6.66,0,0,0,2.3-1.62,7.74,7.74,0,0,0,1.49-2.41,8.05,8.05,0,0,0,.53-2.92v-.06a8.2,8.2,0,0,0-.53-2.94,7.47,7.47,0,0,0-1.52-2.42,7.39,7.39,0,0,0-2.33-1.64A7.16,7.16,0,0,0,85,21.17a7.31,7.31,0,0,0-3,.59,6.76,6.76,0,0,0-2.28,1.63,7.56,7.56,0,0,0-1.48,2.4,7.85,7.85,0,0,0-.54,2.92v.07a8,8,0,0,0,.54,2.93,7.15,7.15,0,0,0,1.52,2.42,7.31,7.31,0,0,0,2.31,1.64A7,7,0,0,0,85.07,36.38Z"/><path class="cls-1" d="M49.36,5.08l-2.07,6.08c-.35,1-.71,2.05-1.08,3.08l-.29.78c-.09.27-.19.45-.28.69-.18.45-.34.9-.49,1.36a15.64,15.64,0,0,0,.25,11.31A8.12,8.12,0,0,0,47,30.89l2.16,2.39A25.12,25.12,0,0,1,51.32,36,12.63,12.63,0,0,1,53,39.39a13,13,0,0,1,.55,3.8,24.91,24.91,0,0,1-.3,3.45A19.55,19.55,0,0,0,53,49.51a16,16,0,0,0,.33,2.73,2.61,2.61,0,1,1-5.12,1,.77.77,0,0,1,0-.15v0A21.47,21.47,0,0,1,48,49.43a23.91,23.91,0,0,1,.45-3.54c.22-1.08.39-2.07.53-2.93a9.35,9.35,0,0,0,0-2.59,8.53,8.53,0,0,0-.83-2.53,20.77,20.77,0,0,0-1.54-2.57l-3.79-5.52a17.27,17.27,0,0,1-2.32-6.7A22.35,22.35,0,0,1,40.77,16c.11-.59.24-1.16.4-1.73a8.42,8.42,0,0,1,.24-.84l.25-.74c.33-1,.65-2,1-3l1.91-6.18A2.55,2.55,0,1,1,49.4,5l0,0Z"/><path class="cls-1" d="M55.71,6a16.44,16.44,0,0,1,4.08,7.26,12.87,12.87,0,0,1,.24,4,8.46,8.46,0,0,1-.14,1,9.44,9.44,0,0,1-.25.95c-.19.61-.44,1.22-.69,1.81A14.79,14.79,0,0,1,54.16,27a26.12,26.12,0,0,1-6.4,3.35c-.55.21-1.11.39-1.67.58l-.83.28-.36.12a3.21,3.21,0,0,0-.33.12,5.42,5.42,0,0,0-2.13,1.65,13.89,13.89,0,0,0-2.32,5.62c-.23,1.06-.41,2.15-.57,3.25l-.23,1.62-.2,1.65c-.13,1.1-.22,2.21-.3,3.31,0,.54-.06,1.09-.07,1.62a10.26,10.26,0,0,0,0,1.42,2.85,2.85,0,0,1-5.64.86,2.76,2.76,0,0,1,0-.64v-.22c.07-.8.17-1.37.28-2l.35-1.76c.23-1.15.5-2.29.76-3.42L35,42.68c.15-.56.3-1.17.49-1.71.37-1.11.74-2.22,1.16-3.34A31.29,31.29,0,0,1,38,34.28a14.14,14.14,0,0,1,2.16-3.19,8.55,8.55,0,0,1,3.35-2.28c.16,0,.32-.12.48-.16l.45-.14.79-.22c.53-.15,1-.33,1.56-.51a18,18,0,0,0,5.57-3.05,9.69,9.69,0,0,0,3.24-4.9A12.68,12.68,0,0,0,56,16.94a10,10,0,0,0-.57-3.05,18.57,18.57,0,0,0-4-5.49,1.85,1.85,0,0,1,.22-3.09,3.24,3.24,0,0,1,3.82.53L55.7,6Z"/><path class="cls-1" d="M61.88,45.35h1.37v5h3.08v1.23H61.88Z"/><path class="cls-1" d="M77.81,45.31h1.25l2.66,6.24H80.29l-.56-1.39H77.11l-.57,1.39H75.15ZM79.24,49l-.82-2-.83,2Z"/><path class="cls-1" d="M91,45.35h2.87a2.16,2.16,0,0,1,1.62.55A1.43,1.43,0,0,1,95.91,47v0a1.66,1.66,0,0,1-.07.47,1.27,1.27,0,0,1-.18.37,1.12,1.12,0,0,1-.25.28,1.6,1.6,0,0,1-.31.22,2.05,2.05,0,0,1,.84.55,1.4,1.4,0,0,1,.31,1v0a1.58,1.58,0,0,1-.16.74,1.49,1.49,0,0,1-.47.53,2.21,2.21,0,0,1-.73.32,4.06,4.06,0,0,1-1,.11H91Zm2.59,2.51a1.41,1.41,0,0,0,.71-.16.53.53,0,0,0,.27-.5v0a.56.56,0,0,0-.23-.47,1.11,1.11,0,0,0-.66-.16H92.32v1.31Zm.36,2.49a1.31,1.31,0,0,0,.71-.16.57.57,0,0,0,.26-.51v0a.58.58,0,0,0-.24-.49A1.3,1.3,0,0,0,93.9,49H92.32v1.36Z"/></svg>